<mxfile host="app.diagrams.net" agent="Mozilla/5.0 (Windows NT 10.0; Win64; x64) AppleWebKit/537.36 (KHTML, like Gecko) Chrome/130.0.0.0 Safari/537.36" version="24.8.3">
  <diagram id="Ht1M8jgEwFfnCIfOTk4-" name="Page-1">
    <mxGraphModel dx="2074" dy="1573" grid="1" gridSize="10" guides="1" tooltips="1" connect="1" arrows="1" fold="1" page="1" pageScale="1" pageWidth="1169" pageHeight="827" math="0" shadow="0">
      <root>
        <mxCell id="0" />
        <mxCell id="1" parent="0" />
        <mxCell id="UEzPUAAOIrF-is8g5C7q-144" value="Site Embrapa" style="outlineConnect=0;fontColor=#232F3E;gradientColor=#F34482;gradientDirection=north;fillColor=#BC1356;strokeColor=#ffffff;dashed=0;verticalLabelPosition=bottom;verticalAlign=top;align=center;html=1;fontSize=12;fontStyle=0;aspect=fixed;shape=mxgraph.aws4.resourceIcon;resIcon=mxgraph.aws4.cloudwatch;labelBackgroundColor=#ffffff;spacingTop=5;" parent="1" vertex="1">
          <mxGeometry x="990" y="-620" width="90" height="90" as="geometry" />
        </mxCell>
        <mxCell id="p1B8prW1hnAOAnVm-Fna-19" value=" Railway" style="fillColor=default;strokeColor=default;verticalAlign=top;fontStyle=0;fontColor=#5A6C86;whiteSpace=wrap;html=1;" parent="1" vertex="1">
          <mxGeometry x="550" y="-630" width="360" height="340" as="geometry" />
        </mxCell>
        <mxCell id="p1B8prW1hnAOAnVm-Fna-42" value="" style="edgeStyle=orthogonalEdgeStyle;rounded=0;orthogonalLoop=1;jettySize=auto;html=1;" parent="1" source="p1B8prW1hnAOAnVm-Fna-20" target="p1B8prW1hnAOAnVm-Fna-21" edge="1">
          <mxGeometry relative="1" as="geometry" />
        </mxCell>
        <mxCell id="p1B8prW1hnAOAnVm-Fna-20" value="Redis" style="image;sketch=0;aspect=fixed;html=1;points=[];align=center;fontSize=12;image=img/lib/mscae/Cache_Redis_Product.svg;imageBackground=default;" parent="1" vertex="1">
          <mxGeometry x="760" y="-495" width="71.43" height="60" as="geometry" />
        </mxCell>
        <mxCell id="p1B8prW1hnAOAnVm-Fna-29" value="" style="edgeStyle=orthogonalEdgeStyle;rounded=0;orthogonalLoop=1;jettySize=auto;html=1;" parent="1" source="p1B8prW1hnAOAnVm-Fna-21" target="UEzPUAAOIrF-is8g5C7q-144" edge="1">
          <mxGeometry relative="1" as="geometry">
            <mxPoint x="793.5" y="-605" as="targetPoint" />
            <Array as="points">
              <mxPoint x="607" y="-610" />
              <mxPoint x="794" y="-610" />
              <mxPoint x="794" y="-601" />
            </Array>
          </mxGeometry>
        </mxCell>
        <mxCell id="p1B8prW1hnAOAnVm-Fna-21" value="API" style="aspect=fixed;sketch=0;html=1;dashed=0;whitespace=wrap;verticalLabelPosition=bottom;verticalAlign=top;fillColor=#2875E2;strokeColor=#ffffff;points=[[0.005,0.63,0],[0.1,0.2,0],[0.9,0.2,0],[0.5,0,0],[0.995,0.63,0],[0.72,0.99,0],[0.5,1,0],[0.28,0.99,0]];shape=mxgraph.kubernetes.icon2;prIcon=api" parent="1" vertex="1">
          <mxGeometry x="560" y="-510" width="93.75" height="90" as="geometry" />
        </mxCell>
        <mxCell id="p1B8prW1hnAOAnVm-Fna-22" value="" style="image;aspect=fixed;perimeter=ellipsePerimeter;html=1;align=center;shadow=0;dashed=0;spacingTop=3;image=img/lib/active_directory/laptop_client.svg;" parent="1" vertex="1">
          <mxGeometry x="200" y="-520" width="110" height="122.22" as="geometry" />
        </mxCell>
        <mxCell id="p1B8prW1hnAOAnVm-Fna-23" style="edgeStyle=orthogonalEdgeStyle;rounded=0;orthogonalLoop=1;jettySize=auto;html=1;entryX=0.005;entryY=0.63;entryDx=0;entryDy=0;entryPerimeter=0;" parent="1" source="p1B8prW1hnAOAnVm-Fna-22" target="p1B8prW1hnAOAnVm-Fna-21" edge="1">
          <mxGeometry relative="1" as="geometry" />
        </mxCell>
        <mxCell id="p1B8prW1hnAOAnVm-Fna-32" style="edgeStyle=orthogonalEdgeStyle;rounded=0;orthogonalLoop=1;jettySize=auto;html=1;entryX=0.72;entryY=0.99;entryDx=0;entryDy=0;entryPerimeter=0;" parent="1" source="p1B8prW1hnAOAnVm-Fna-44" target="p1B8prW1hnAOAnVm-Fna-21" edge="1">
          <mxGeometry relative="1" as="geometry">
            <mxPoint x="780" y="-351" as="sourcePoint" />
          </mxGeometry>
        </mxCell>
        <mxCell id="p1B8prW1hnAOAnVm-Fna-43" value="" style="endArrow=classic;html=1;rounded=0;entryX=0.014;entryY=0.6;entryDx=0;entryDy=0;entryPerimeter=0;" parent="1" edge="1">
          <mxGeometry width="50" height="50" relative="1" as="geometry">
            <mxPoint x="650" y="-459" as="sourcePoint" />
            <mxPoint x="761.00002" y="-458" as="targetPoint" />
          </mxGeometry>
        </mxCell>
        <mxCell id="p1B8prW1hnAOAnVm-Fna-44" value="Scraper        " style="outlineConnect=0;fontColor=#232F3E;gradientColor=#F34482;gradientDirection=north;fillColor=#BC1356;strokeColor=#ffffff;dashed=0;verticalLabelPosition=bottom;verticalAlign=top;align=center;html=1;fontSize=12;fontStyle=0;aspect=fixed;shape=mxgraph.aws4.resourceIcon;resIcon=mxgraph.aws4.sns;labelBackgroundColor=#ffffff;spacingTop=5;" parent="1" vertex="1">
          <mxGeometry x="820" y="-400" width="78" height="78" as="geometry" />
        </mxCell>
        <mxCell id="p1B8prW1hnAOAnVm-Fna-50" style="edgeStyle=orthogonalEdgeStyle;rounded=0;orthogonalLoop=1;jettySize=auto;html=1;" parent="1" source="UEzPUAAOIrF-is8g5C7q-144" target="p1B8prW1hnAOAnVm-Fna-44" edge="1">
          <mxGeometry relative="1" as="geometry" />
        </mxCell>
      </root>
    </mxGraphModel>
  </diagram>
</mxfile>
